<?xml version="1.0" encoding="UTF-8"?>
<svg version="1.1" xmlns="http://www.w3.org/2000/svg" width="333" height="130">
<path d="M0 0 C109.89 0 219.78 0 333 0 C333 42.9 333 85.8 333 130 C223.11 130 113.22 130 0 130 C0 87.1 0 44.2 0 0 Z " fill="#FEFEFE" transform="translate(0,0)"/>
<path d="M0 0 C5.89027158 4.77753034 9.71886533 11.02587935 11.6875 18.3125 C12.8244385 29.53827167 11.96571599 39.46995134 4.85546875 48.6875 C-1.25119035 55.23981272 -8.15969633 58.98879143 -17.10546875 59.55078125 C-28.88431114 59.84950545 -36.62598207 58.50157839 -45.5234375 50.2421875 C-53.47345879 41.66727371 -54.95862163 33.06710301 -54.69140625 21.78125 C-54.36021212 16.092783 -52.63762217 11.91991663 -49.3125 7.3125 C-48.8896875 6.67183594 -48.466875 6.03117187 -48.03125 5.37109375 C-36.60261168 -10.01105608 -14.81808315 -10.07517396 0 0 Z " fill="#1BA1BA" transform="translate(287.3125,41.6875)"/>
<path d="M0 0 C6.6037922 4.81688372 9.84583142 10.19113888 12 18 C12 22.95 12 27.9 12 33 C-3.51 33 -19.02 33 -35 33 C-31.12037222 43.4185147 -31.12037222 43.4185147 -23.109375 48.5546875 C-17.82405074 50.78799133 -12.21672968 50.57005309 -6.5625 50.6875 C-5.44939453 50.72166016 -4.33628906 50.75582031 -3.18945312 50.79101562 C-0.45973617 50.87302429 2.2696786 50.94232837 5 51 C5 54.3 5 57.6 5 61 C1.04181074 61.08821107 -2.91612062 61.14079412 -6.875 61.1875 C-7.98359375 61.21263672 -9.0921875 61.23777344 -10.234375 61.26367188 C-21.20282833 61.36045235 -29.78720107 59.54164547 -38 52 C-44.04742063 46.0348572 -47.33425035 40.05602196 -47.46875 31.49194336 C-47.4584375 30.73147705 -47.448125 29.97101074 -47.4375 29.1875 C-47.42847656 28.39287354 -47.41945313 27.59824707 -47.41015625 26.77954102 C-47.11681499 16.81306798 -44.02804414 10.17047198 -37.15625 2.9140625 C-26.89986133 -6.19034048 -11.75532736 -6.39229783 0 0 Z " fill="#828282" transform="translate(69,39)"/>
<path d="M0 0 C3.96 0 7.92 0 12 0 C12.0825 1.815 12.165 3.63 12.25 5.5 C12.79153632 11.70571348 13.68144318 17.16472815 18.609375 21.375 C22.43805897 23.81451545 25.55286889 24.71018824 30 24 C31.98688963 21.86877681 33.39672639 20.04466342 34.9375 17.625 C35.37151123 16.99319824 35.80552246 16.36139648 36.25268555 15.71044922 C38.23043245 12.81473753 40.04627769 9.9161606 41.7421875 6.84375 C43.33122428 4.09258185 44.56031185 2.04381422 47 0 C51.45377169 -0.8173981 55.52904417 -0.60509177 60 0 C58.57417593 3.06623706 56.87387713 5.66721879 54.84765625 8.37109375 C54.23599609 9.19287109 53.62433594 10.01464844 52.99414062 10.86132812 C52.35669922 11.71146484 51.71925781 12.56160156 51.0625 13.4375 C49.80127841 15.12212253 48.54209826 16.80827571 47.28515625 18.49609375 C46.72707275 19.24044678 46.16898926 19.9847998 45.59399414 20.75170898 C43.92910631 23.09999387 42.45043088 25.51460204 41 28 C41.825 28.20625 42.65 28.4125 43.5 28.625 C51.26897559 31.67709755 56.30091248 36.55419722 60 44 C61.25433458 47.76300374 61.10695422 51.27210909 61.0625 55.1875 C61.05798828 55.93708984 61.05347656 56.68667969 61.04882812 57.45898438 C61.03706354 59.30602383 61.01912865 61.15302213 61 63 C57.37 63 53.74 63 50 63 C49.98582031 62.154375 49.97164062 61.30875 49.95703125 60.4375 C49.64844518 53.09815555 49.0699521 47.54954216 44 42 C39.59933842 38.28388578 35.51932885 37.14193011 30 36 C29.76667969 36.69609375 29.53335938 37.3921875 29.29296875 38.109375 C27.45741697 42.21302551 24.72905029 45.4800064 21.94262695 48.96166992 C19.8877977 51.5399853 17.97774709 54.03604972 16.2421875 56.84765625 C14.63699373 59.39257401 13.41504799 61.19554905 11 63 C6.56590183 63.73032205 2.44763344 63.54174182 -2 63 C2.67872847 55.73352234 7.84354967 48.97444842 13.22851562 42.22265625 C13.82986328 41.46082031 14.43121094 40.69898438 15.05078125 39.9140625 C15.59387939 39.2329541 16.13697754 38.5518457 16.6965332 37.85009766 C18.1842735 35.92698451 18.1842735 35.92698451 19 33 C17.7625 32.7215625 17.7625 32.7215625 16.5 32.4375 C9.45312058 29.54324595 4.77594619 24.71288384 1.69140625 17.796875 C0.13600472 13.75458854 -0.10532753 10.6380804 -0.0625 6.3125 C-0.05347656 5.13300781 -0.04445313 3.95351563 -0.03515625 2.73828125 C-0.02355469 1.83464844 -0.01195313 0.93101563 0 0 Z " fill="#828282" transform="translate(94,37)"/>
<path d="M0 0 C0.76837189 0.00424484 1.53674377 0.00848969 2.32839966 0.01286316 C4.76357235 0.02955049 7.1978933 0.06718234 9.6328125 0.10546875 C11.29165465 0.12052852 12.95050987 0.13421466 14.609375 0.14648438 C18.6591784 0.17942116 22.70835144 0.23113281 26.7578125 0.29296875 C26.7578125 3.26296875 26.7578125 6.23296875 26.7578125 9.29296875 C25.8699707 9.3180249 24.98212891 9.34308105 24.06738281 9.36889648 C20.76485213 9.46418672 17.46248791 9.56341082 14.16015625 9.6652832 C12.73246862 9.70852193 11.30473296 9.7502046 9.87695312 9.7902832 C7.82146754 9.84825477 5.76622122 9.9118705 3.7109375 9.9765625 C1.85710449 10.03154907 1.85710449 10.03154907 -0.03417969 10.08764648 C-2.61406408 10.25276694 -4.78573856 10.53940745 -7.2421875 11.29296875 C-7.51966992 12.70450974 -7.76312266 14.12276674 -7.9921875 15.54296875 C-8.13140625 16.331875 -8.270625 17.12078125 -8.4140625 17.93359375 C-8.40841472 20.38663312 -8.40841472 20.38663312 -6.9296875 22.5546875 C-2.70094957 25.28984502 1.57531306 24.85222368 6.5078125 24.85546875 C21.72591239 24.92667644 21.72591239 24.92667644 27.81640625 30.01171875 C28.27144531 30.59953125 28.72648437 31.18734375 29.1953125 31.79296875 C29.66839844 32.38078125 30.14148438 32.96859375 30.62890625 33.57421875 C33.70508196 38.25766965 33.41077245 43.92255657 32.7578125 49.29296875 C30.38351739 55.24348431 26.32997496 59.45731415 20.63793945 62.38232422 C16.80533798 63.59412413 13.15080461 63.54065041 9.17578125 63.48828125 C8.36160233 63.48545135 7.5474234 63.48262146 6.70857239 63.47970581 C4.1206665 63.46855459 1.53311292 63.44345958 -1.0546875 63.41796875 C-2.81444811 63.4079324 -4.57421417 63.39880769 -6.33398438 63.390625 C-10.63685348 63.36863185 -14.93946086 63.33413711 -19.2421875 63.29296875 C-19.2421875 59.99296875 -19.2421875 56.69296875 -19.2421875 53.29296875 C-17.68322754 53.2789502 -17.68322754 53.2789502 -16.09277344 53.26464844 C-12.23084912 53.22472752 -8.3697197 53.15896397 -4.50830078 53.08544922 C-2.83815739 53.05725157 -1.16788085 53.03603096 0.50244141 53.02197266 C2.90596622 53.00052538 5.30789233 52.9538703 7.7109375 52.90234375 C8.8283432 52.90050079 8.8283432 52.90050079 9.96832275 52.89862061 C13.48013839 52.79975454 15.41375147 52.55894067 18.22973633 50.38208008 C20.80217598 46.86516585 20.23254267 44.56554031 19.7578125 40.29296875 C18.17956997 38.10589573 17.30219812 37.39151593 14.63232422 36.90820312 C13.42213623 36.89756836 13.42213623 36.89756836 12.1875 36.88671875 C11.2903125 36.86480469 10.393125 36.84289062 9.46875 36.8203125 C8.53289062 36.81128906 7.59703125 36.80226562 6.6328125 36.79296875 C-1.73371676 36.71024883 -9.5104243 36.38953821 -16.1796875 30.85546875 C-20.45094371 25.54875649 -20.79366698 21.31559309 -20.6875 14.56640625 C-20.01940869 9.65534907 -18.02472647 6.45286756 -14.2421875 3.29296875 C-9.46049635 0.38960695 -5.47425658 -0.11538378 0 0 Z " fill="#1BA1BA" transform="translate(188.2421875,36.70703125)"/>
<path d="M0 0 C5.54448964 3.24478655 10.28022636 8.02469934 12.625 14.08203125 C13.38788777 22.27863934 14.14889321 31.38837242 8.625 38.08203125 C3.55705659 43.65175124 -1.3256272 45.72048011 -8.875 46.39453125 C-16.02696233 45.75596318 -21.67427587 42.38779908 -26.375 37.08203125 C-30.73446588 30.61976418 -31.40253623 23.70033017 -30.375 16.08203125 C-28.16306258 8.91393457 -23.15095765 3.34722484 -16.5234375 -0.18359375 C-11.20278094 -2.0022909 -5.2510882 -2.02961468 0 0 Z " fill="#FCFDFE" transform="translate(274.375,45.91796875)"/>
<path d="M0 0 C4.47458152 2.246976 7.24354548 5.67711043 8.8046875 10.34375 C9.2996875 14.30375 9.2996875 14.30375 9.8046875 18.34375 C-2.0753125 18.34375 -13.9553125 18.34375 -26.1953125 18.34375 C-25.06368335 9.29071681 -25.06368335 9.29071681 -22.4453125 6.03125 C-21.71054687 5.07798828 -21.71054687 5.07798828 -20.9609375 4.10546875 C-15.16110538 -1.68153189 -7.70711366 -2.30390586 0 0 Z " fill="#FDFDFD" transform="translate(60.1953125,45.65625)"/>
</svg>
